<?xml version="1.0" encoding="utf-8"?>
<!-- Generator: Adobe Illustrator 27.5.0, SVG Export Plug-In . SVG Version: 6.00 Build 0)  -->
<svg version="1.1" xmlns="http://www.w3.org/2000/svg" xmlns:xlink="http://www.w3.org/1999/xlink" x="0px" y="0px"
	 viewBox="0 0 500 500" style="enable-background:new 0 0 500 500;" xml:space="preserve">
<g id="Background_Complete">
	<g>
		<rect y="382.398" style="fill:#EBEBEB;" width="500" height="0.25"/>
		<rect x="416.779" y="398.494" style="fill:#EBEBEB;" width="33.122" height="0.25"/>
		<rect x="322.527" y="401.208" style="fill:#EBEBEB;" width="8.693" height="0.25"/>
		<rect x="396.586" y="389.208" style="fill:#EBEBEB;" width="19.192" height="0.25"/>
		<rect x="52.459" y="390.888" style="fill:#EBEBEB;" width="43.193" height="0.25"/>
		<rect x="104.556" y="390.888" style="fill:#EBEBEB;" width="6.333" height="0.25"/>
		<rect x="131.471" y="395.111" style="fill:#EBEBEB;" width="93.676" height="0.25"/>
		<path style="fill:#EBEBEB;" d="M237.014,337.8H43.915c-3.147,0-5.708-2.561-5.708-5.708V60.66c0-3.147,2.561-5.708,5.708-5.708
			h193.099c3.146,0,5.707,2.561,5.707,5.708v271.432C242.721,335.239,240.16,337.8,237.014,337.8z M43.915,55.203
			c-3.01,0-5.458,2.448-5.458,5.458v271.432c0,3.01,2.448,5.458,5.458,5.458h193.099c3.009,0,5.457-2.448,5.457-5.458V60.66
			c0-3.009-2.448-5.458-5.457-5.458H43.915z"/>
		<path style="fill:#EBEBEB;" d="M453.31,337.8H260.212c-3.147,0-5.707-2.561-5.707-5.708V60.66c0-3.147,2.561-5.708,5.707-5.708
			H453.31c3.148,0,5.708,2.561,5.708,5.708v271.432C459.019,335.239,456.458,337.8,453.31,337.8z M260.212,55.203
			c-3.009,0-5.457,2.448-5.457,5.458v271.432c0,3.01,2.448,5.458,5.457,5.458H453.31c3.01,0,5.458-2.448,5.458-5.458V60.66
			c0-3.009-2.448-5.458-5.458-5.458H260.212z"/>
	</g>
	<g>
		<g>
			<rect x="57.389" y="102.333" style="fill:#EBEBEB;" width="153.377" height="280.065"/>
			<rect x="79.878" y="68.09" style="fill:#FAFAFA;" width="108.4" height="18.578"/>
			<rect x="65.278" y="109.127" style="fill:#FFFFFF;" width="137.599" height="273.271"/>
			<path style="fill:#EBEBEB;" d="M196.287,231.486h-27.389c-1.465,0-2.652,1.187-2.652,2.652l0,0c0,1.465,1.187,2.652,2.652,2.652
				h27.389c1.465,0,2.652-1.187,2.652-2.652l0,0C198.939,232.673,197.752,231.486,196.287,231.486z"/>
			<rect x="85.848" y="124.268" style="fill:#EBEBEB;" width="31.879" height="230.761"/>
			<polygon style="fill:#F5F5F5;" points="117.727,156.899 85.848,172.836 85.848,211.925 117.727,195.988 			"/>
			<polygon style="fill:#F5F5F5;" points="117.727,203.973 85.848,219.91 85.848,234.877 117.727,218.94 			"/>
			<polygon style="fill:#F5F5F5;" points="117.727,285.306 85.848,301.243 85.848,316.21 117.727,300.273 			"/>
		</g>
		<g>
			
				<rect x="233.684" y="86.668" transform="matrix(-1 -1.224647e-16 1.224647e-16 -1 676.2955 395.0012)" style="fill:#EBEBEB;" width="208.927" height="221.665"/>
			
				<rect x="235.302" y="88.384" transform="matrix(-1 -1.224647e-16 1.224647e-16 -1 676.2955 395.0012)" style="fill:#FFFFFF;" width="205.692" height="218.233"/>
			
				<rect x="260.22" y="200.486" transform="matrix(-0.9987 -0.0509 0.0509 -0.9987 575.8757 468.473)" style="fill:#F0F0F0;" width="67.358" height="52.845"/>
			
				<rect x="331.801" y="139.68" transform="matrix(-0.9932 0.1162 -0.1162 -0.9932 747.7833 288.6177)" style="fill:#F0F0F0;" width="67.358" height="52.845"/>
			<path style="fill:#E6E6E6;" d="M292.926,97.976h90.444c4.103,0,7.429-3.326,7.429-7.429v-1.915c0-4.103-3.326-7.429-7.429-7.429
				h-90.444c-4.103,0-7.429,3.326-7.429,7.429v1.915C285.497,94.65,288.823,97.976,292.926,97.976z"/>
			<path style="fill:#FFFFFF;" d="M293.353,96.461h89.59c2.422,0,4.385-1.963,4.385-4.385v-0.304c0-2.422-1.963-4.385-4.385-4.385
				h-89.59c-2.422,0-4.385,1.963-4.385,4.385v0.304C288.967,94.498,290.931,96.461,293.353,96.461z"/>
			<g>
				
					<rect x="253.428" y="114.006" transform="matrix(-1 -1.224647e-16 1.224647e-16 -1 595.1438 297.2762)" style="fill:#E6E6E6;" width="88.287" height="69.265"/>
				<g>
					<g>
						<path style="fill:#FFFFFF;" d="M265.229,122.224c-5.656-0.198-6.263,3.129-4.044,5.132
							c2.219,2.003,23.734,14.074,24.474,17.625c0.74,3.551,2.131,8.842,4.316,4.324c2.185-4.518,6.278-3.319,7.704-7.139
							c1.027-2.751-9.347-3.006-12.394-5.151C276.361,130.731,268.553,122.34,265.229,122.224z"/>
						<path style="fill:#FFFFFF;" d="M326.421,175.052c2.541,0.676,2.997-0.571,0.778-2.574
							c-2.219-2.003-19.983-12.205-21.208-20.182c-0.55-3.585-2.131-8.842-4.316-4.324c-2.185,4.518-6.278,3.319-7.704,7.139
							c-1.027,2.751,9.347,3.006,12.394,5.151C315.289,166.545,323.206,174.197,326.421,175.052z"/>
						<path style="fill:#FFFFFF;" d="M299.288,149.323c1.89-2.096-0.726-5.103-4.642-3.348
							C290.73,147.73,294.201,154.964,299.288,149.323z"/>
					</g>
					<path style="fill:#FFFFFF;" d="M304.942,149.622c6.222,7.419,23.633,19.624,26.086,20.522c2.453,0.897,4.487,5.026-2.752,0.239
						c-7.239-4.786-22.317-16.154-23.334-18.069C303.925,150.4,304.942,149.622,304.942,149.622z"/>
				</g>
			</g>
			<g>
				
					<rect x="330.501" y="204.735" transform="matrix(-1 -1.224647e-16 1.224647e-16 -1 749.2882 478.7354)" style="fill:#E6E6E6;" width="88.287" height="69.265"/>
				<path style="fill:#FFFFFF;" d="M383.415,214.973c-7.621-0.211-3.771,18.621-2.335,29.151c1.436,10.53,3.59,22.975,15.077,22.496
					c11.487-0.479,14.178-8.154,11.844-18.45C404.414,232.338,390.266,215.163,383.415,214.973z"/>
				<path style="fill:#FFFFFF;" d="M365.873,214.973c7.621-0.211,3.771,18.621,2.335,29.151c-1.436,10.53-3.59,22.975-15.077,22.496
					c-11.487-0.479-14.178-8.154-11.844-18.45C344.874,232.338,359.023,215.163,365.873,214.973z"/>
				<path style="fill:#FFFFFF;" d="M382.536,230.153c-0.355,0-0.715-0.088-1.048-0.274c-0.367-0.206-8.998-5.185-8.998-17.435
					c0-1.189,0.965-2.154,2.154-2.154c1.19,0,2.154,0.964,2.154,2.154c0,9.646,6.529,13.523,6.808,13.683
					c1.026,0.592,1.388,1.904,0.802,2.934C384.012,229.76,383.285,230.153,382.536,230.153z"/>
				<path style="fill:#FFFFFF;" d="M366.748,230.154c-0.754,0-1.486-0.396-1.881-1.101c-0.58-1.035-0.214-2.343,0.816-2.927
					c0.304-0.176,6.807-4.056,6.807-13.682c0-1.189,0.965-2.154,2.154-2.154c1.19,0,2.154,0.964,2.154,2.154
					c0,12.249-8.632,17.229-9,17.435C367.466,230.065,367.104,230.154,366.748,230.154z"/>
				<path style="fill:#F5F5F5;" d="M391.397,255.163c0,3.04,2.464,5.504,5.504,5.504c3.04,0,5.504-2.464,5.504-5.504
					s-2.464-5.504-5.504-5.504C393.861,249.658,391.397,252.123,391.397,255.163z"/>
				<path style="fill:#F5F5F5;" d="M361.86,233.703c-0.93,2.894-0.51,5.617,0.937,6.082c1.447,0.465,3.374-1.505,4.303-4.399
					c0.93-2.894,0.51-5.618-0.937-6.082C364.716,228.839,362.79,230.808,361.86,233.703z"/>
			</g>
		</g>
	</g>
</g>
<g id="Background_Simple" style="display:none;">
	<g style="display:inline;">
		<path style="fill:#407BFF;" d="M367.811,172.978c-17.378-23.945-60.206-43.527-96.198-38.48
			c-39.748,5.573-58.625,39.332-97.811,42.983c-39.849,3.713-69.533-16.973-94.484,24.408
			c-19.232,31.896,6.127,52.917,30.312,73.408c43.42,36.787,136.226,95.889,209.436,62.745
			C402.448,300.291,406.766,226.655,367.811,172.978z"/>
		<path style="opacity:0.9;fill:#FFFFFF;" d="M367.811,172.978c-17.378-23.945-60.206-43.527-96.198-38.48
			c-39.748,5.573-58.625,39.332-97.811,42.983c-39.849,3.713-69.533-16.973-94.484,24.408
			c-19.232,31.896,6.127,52.917,30.312,73.408c43.42,36.787,136.226,95.889,209.436,62.745
			C402.448,300.291,406.766,226.655,367.811,172.978z"/>
	</g>
</g>
<g id="Shadow_1_">
	<ellipse id="_x3C_Path_x3E__37_" style="fill:#F5F5F5;" cx="250" cy="416.238" rx="193.889" ry="11.323"/>
</g>
<g id="Flower">
	<g>
		<path style="fill:#407BFF;" d="M89.582,345.294c-0.001,0-0.003,0-0.004,0c-0.276-0.002-0.498-0.229-0.496-0.504
			c0.171-19.018-5.924-91.388-20.629-112.88c-0.156-0.228-0.098-0.539,0.13-0.695c0.229-0.156,0.539-0.097,0.695,0.13
			c15.061,22.012,20.982,93.694,20.804,113.453C90.08,345.074,89.856,345.294,89.582,345.294z"/>
		<path style="fill:#263238;" d="M94.922,340.031H84.243c-8.444,23.115-4.815,72.823,0,72.823l0,0h10.678
			C99.736,412.854,103.366,363.146,94.922,340.031z"/>
		<path style="fill:#407BFF;" d="M72.689,241.346c2.295,1.597,2.543,3.362,1.623,4.685c-0.921,1.323-2.662,1.702-4.956,0.105
			s-4.007-6.344-4.007-6.344S70.395,239.748,72.689,241.346z"/>
		<path style="fill:#407BFF;" d="M86.294,262.888c-0.761,2.69-2.348,3.501-3.898,3.063c-1.551-0.438-2.478-1.96-1.717-4.651
			c0.761-2.69,4.689-5.858,4.689-5.858S87.055,260.198,86.294,262.888z"/>
		<path style="fill:#407BFF;" d="M82.587,280.826c1.923,2.03,1.808,3.808,0.638,4.916c-1.17,1.108-2.952,1.126-4.875-0.903
			c-1.923-2.03-2.636-7.025-2.636-7.025S80.665,278.796,82.587,280.826z"/>
		<path style="fill:#407BFF;" d="M93.55,313.046c-1.102,2.57-2.78,3.169-4.261,2.534c-1.481-0.635-2.204-2.264-1.103-4.833
			c1.102-2.57,5.405-5.204,5.405-5.204S94.652,310.477,93.55,313.046z"/>
		<g>
			<g>
				<path style="fill:#407BFF;" d="M64.762,226.248c-1.85-1.746,2.3-6.847,5.107-6.678c1.474,0.089,1.163,2.176,1.227,3.911
					c0.064,1.735-0.203,3.331-2.505,3.768C66.289,227.687,65.641,227.078,64.762,226.248z"/>
				<path style="opacity:0.2;" d="M64.762,226.248c-1.85-1.746,2.3-6.847,5.107-6.678c1.474,0.089,1.163,2.176,1.227,3.911
					c0.064,1.735-0.203,3.331-2.505,3.768C66.289,227.687,65.641,227.078,64.762,226.248z"/>
			</g>
			<path style="fill:#407BFF;" d="M69.225,224.147c-0.168-2.539-6.744-2.588-8.4-0.317c-0.87,1.193,1.902,1.462,2.739,2.983
				c0.838,1.521,2.191,2.42,3.995,0.924C69.362,226.241,69.305,225.353,69.225,224.147z"/>
			<g>
				<path style="fill:#407BFF;" d="M71.262,226.083c-0.221-3.348-8.894-3.414-11.079-0.418c-1.148,1.574,1.236,3.011,2.946,4.534
					c1.71,1.523,3.557,2.592,5.935,0.619C71.442,228.845,71.367,227.674,71.262,226.083z"/>
				<path style="opacity:0.2;" d="M71.262,226.083c-0.221-3.348-8.894-3.414-11.079-0.418c-1.148,1.574,1.236,3.011,2.946,4.534
					c1.71,1.523,3.557,2.592,5.935,0.619C71.442,228.845,71.367,227.674,71.262,226.083z"/>
			</g>
			<path style="fill:#407BFF;" d="M65.377,228.855c-2.441-2.303,3.034-9.031,6.735-8.807c1.944,0.118-0.111,3.162,0.731,5.291
				c0.843,2.129,0.62,4.261-2.416,4.838C67.39,230.753,66.535,229.949,65.377,228.855z"/>
			<g>
				<path style="fill:#407BFF;" d="M71.262,226.083c-0.221-3.348-8.894-3.414-11.079-0.418c-1.148,1.574,1.236,3.011,2.946,4.534
					c1.71,1.523,3.557,2.592,5.935,0.619C71.442,228.845,71.367,227.674,71.262,226.083z"/>
				<path style="opacity:0.2;" d="M71.262,226.083c-0.221-3.348-8.894-3.414-11.079-0.418c-1.148,1.574,1.236,3.011,2.946,4.534
					c1.71,1.523,3.557,2.592,5.935,0.619C71.442,228.845,71.367,227.674,71.262,226.083z"/>
			</g>
			<path style="fill:#407BFF;" d="M65.377,228.855c-2.441-2.303,3.034-9.031,6.735-8.807c1.944,0.118-0.111,3.162,0.731,5.291
				c0.843,2.129,0.62,4.261-2.416,4.838C67.39,230.753,66.535,229.949,65.377,228.855z"/>
			<g>
				<path style="fill:#407BFF;" d="M66.003,232.69c-2.809-2.652,3.493-10.396,7.753-10.138c2.238,0.135,1.766,3.304,1.863,5.939
					c0.098,2.634-0.308,5.058-3.803,5.721C68.322,234.874,67.338,233.949,66.003,232.69z"/>
				<path style="opacity:0.2;" d="M66.003,232.69c-2.809-2.652,3.493-10.396,7.753-10.138c2.238,0.135,1.766,3.304,1.863,5.939
					c0.098,2.634-0.308,5.058-3.803,5.721C68.322,234.874,67.338,233.949,66.003,232.69z"/>
			</g>
			<path style="fill:#407BFF;" d="M72.779,229.499c-0.255-3.855-10.239-3.93-12.754-0.481c-1.321,1.811,2.888,2.219,4.159,4.529
				c1.272,2.309,3.327,3.675,6.064,1.403C72.986,232.678,72.9,231.33,72.779,229.499z"/>
		</g>
	</g>
</g>
<g id="Approved_Icon">
	<g>
		
			<ellipse transform="matrix(0.2298 -0.9732 0.9732 0.2298 102.9359 290.1073)" style="fill:#407BFF;" cx="234.751" cy="80.021" rx="31.708" ry="31.708"/>
		<polygon style="fill:#407BFF;" points="211.976,99.405 198.794,113.756 227.278,107.895 		"/>
		<circle style="fill:#FFFFFF;" cx="234.751" cy="80.021" r="28.246"/>
		<path style="fill:#407BFF;" d="M213.828,82.411l1.954,11.947c0.187,1.145,1.268,1.922,2.413,1.735l9.93-1.624
			c0.101-0.016,0.203-0.026,0.306-0.027l14.204-0.226c0.205-0.003,0.409-0.036,0.604-0.099l6.872-2.188
			c1.554-0.495,2.639-1.899,2.726-3.527l0.638-11.956c0.16-2.998-2.346-5.457-5.341-5.241l-7.415,0.537
			c-1.213,0.088-2.247-0.87-2.253-2.086l-0.021-4.393c-0.01-2.06-0.713-4.056-1.996-5.667l0,0c-0.474-0.595-1.232-0.887-1.983-0.765
			l0,0c-1.106,0.181-1.876,1.198-1.749,2.312l0.417,3.662c0.047,0.41-0.028,0.825-0.216,1.193l-5.187,10.163
			c-0.275,0.538-0.768,0.933-1.354,1.081l-10.991,2.793C214.327,80.303,213.652,81.335,213.828,82.411z"/>
		<polygon style="fill:#407BFF;" points="256.833,49.646 260.103,41.002 261.02,44.069 		"/>
		<polygon style="fill:#407BFF;" points="199.364,61.042 187.732,62.668 190.021,59.151 		"/>
		<polygon style="fill:#407BFF;" points="203.508,58.924 195.721,55.622 198.437,54.297 		"/>
		<polygon style="fill:#407BFF;" points="259.921,50.323 264.277,46.499 263.951,48.911 		"/>
	</g>
</g>
<g id="Character_1">
	<g>
		<path style="fill:#263238;" d="M151.251,131.564c-7.665,8.452-19.994,29.29-1.337,45.437c-5.455-23.02,9.505-28.257,4.971-43.422
			C151.986,130.851,151.251,131.564,151.251,131.564z"/>
		<path style="fill:#407BFF;" d="M153.937,124.266c-0.97,5.355-4.749,6.925-2.482,9.237c2.266,2.311,4.319,0.676,4.57-0.989
			c0.251-1.665,3.001-4.629,3.001-4.629S158.676,123.422,153.937,124.266z"/>
		<path style="fill:#FFC3BD;" d="M147.812,384.53l-11.05,0.81c1.526,8.796,2.967,22.684,2.967,22.684h8.759
			C148.488,408.025,147.485,390.549,147.812,384.53z"/>
		<path style="fill:#FFC3BD;" d="M202.694,384.681l-10.99,0.321c2.066,8.897,4.361,22.901,4.361,22.901l8.75,0.39
			C204.816,408.293,202.738,390.707,202.694,384.681z"/>
		<path style="fill:#263238;" d="M157.974,416.712c-7.613,0-7.073-0.117-11.361-0.261c-3.672-0.131-4.515,0.327-7.464,0.261
			c-2.463-0.052-2.544-2.407-1.982-5.115c0.214-1.039,0.537-2.254,0.839-3.749c0.174-0.863,0.912-1.47,1.807-1.47h8.907
			c0.648,0,1.288,0.309,1.684,0.85c1.874,2.567,4.937,4.451,8.85,4.972C163.389,412.748,161.009,416.712,157.974,416.712z"/>
		<path style="fill:#263238;" d="M217.272,414.349c-7.553,0.955-7.055,0.774-11.356,1.173c-3.686,0.334-4.374,0.883-7.32,1.189
			c-2.461,0.259-3.304-2.008-3.626-4.697c-0.125-1.031-0.198-2.247-0.383-3.731c-0.107-0.856,0.428-1.536,1.316-1.648l8.836-1.118
			c0.643-0.081,1.378,0.137,1.946,0.611c2.692,2.246,6.342,3.685,10.392,3.697C221.358,409.838,220.283,413.969,217.272,414.349z"/>
		<path style="fill:#407BFF;" d="M193.888,212.753c0,0,6.922,53.837,6.318,88.026c2.626,32.096,3.785,93.707,3.785,93.707
			c-0.198,1.632-8.819,0.593-10.307-0.46c0,0-16.77-41.185-13.548-93.247c-22.02-54.297-20.705-88.026-20.705-88.026H193.888z"/>
		<path style="opacity:0.2;" d="M165.566,256.228c1.709,7.011,3.904,14.789,6.711,23.249c0.818-17.046,5.426-39.86,5.582-40.637
			L165.566,256.228z"/>
		<path style="fill:#407BFF;" d="M184.509,212.753c0,0-15.742,60.766-21.978,90.605c-6.55,31.337-15.732,70.091-13.908,90.909
			c-1.754,1.036-8.02,1.099-11.564,0c0,0-13.481-59.355,3.662-89.523c-6.203-74.232,13.433-91.991,13.433-91.991H184.509z"/>
		<g>
			<path style="fill:#E0E0E0;" d="M149.372,389.931c0.064,1.05,0.212,2.879,0.525,4.276c0.113,0.504-0.213,0.97-0.718,1.052
				c-4.213,0.678-10.367-0.304-12.321-0.654c-0.374-0.067-0.665-0.362-0.735-0.736l-0.746-4c-0.102-0.547,0.313-1.039,0.867-1.028
				l12.232,0.236C148.949,389.086,149.343,389.458,149.372,389.931z"/>
		</g>
		<g>
			<path style="fill:#E0E0E0;" d="M205.032,390.003c0.065,1.119,0.192,3.113,0.34,4.589c0.049,0.488-0.299,0.901-0.784,0.947
				c-3.632,0.341-9.463-0.375-11.377-0.634c-0.379-0.051-0.686-0.339-0.769-0.714l-0.891-4.041
				c-0.121-0.551,0.287-1.062,0.847-1.059l11.726,0.055C204.602,389.148,205.004,389.523,205.032,390.003z"/>
		</g>
		<path style="fill:#FFC3BD;" d="M239.676,162.77l-2.912,0.961c-1.095,0.361-1.948,1.23-2.29,2.331l-1.596,5.147
			c-0.638,2.058-0.24,4.297,1.068,6.009l0.81,1.06c4.938-1.263,9.344-6.267,9.344-6.267l1.414-1.287
			c1.259-1.147,1.389-2.98,0.296-4.211l-2.514-2.835C242.429,162.697,240.988,162.336,239.676,162.77z"/>
		<g>
			<path style="fill:#407BFF;" d="M195.973,160.956c-0.017-0.019,0.038,0.163,0.065,0.265l0.118,0.39l0.271,0.822
				c0.186,0.559,0.423,1.117,0.65,1.679c0.47,1.121,0.991,2.237,1.553,3.331c1.116,2.195,2.462,4.267,3.936,6.202
				c2.973,3.851,6.592,7.085,10.713,9.239c0.516,0.268,1.031,0.536,1.564,0.763l0.396,0.18c0.108,0.049,0.337,0.156,0.265,0.118
				c-0.02-0.004-0.045-0.012-0.045-0.012c-0.056,0.019,0.329,0.028,0.992-0.215c0.656-0.233,1.517-0.672,2.389-1.251
				c0.873-0.591,1.776-1.307,2.67-2.088c1.782-1.587,3.52-3.447,5.134-5.444c0.818-0.99,1.589-2.034,2.345-3.083
				c0.374-0.528,0.736-1.065,1.09-1.6c0.339-0.517,0.715-1.124,0.954-1.551l11.716,8.438c-0.586,0.703-1.061,1.207-1.584,1.792
				l-1.538,1.673c-1.022,1.111-2.079,2.188-3.142,3.269c-2.149,2.144-4.384,4.247-6.905,6.241c-1.263,1-2.6,1.971-4.092,2.877
				c-1.495,0.908-3.127,1.785-5.127,2.444c-1.977,0.633-4.454,1.113-7.27,0.574c-0.69-0.133-1.387-0.331-2.057-0.595
				c-0.404-0.152-0.487-0.204-0.7-0.295l-0.561-0.252c-0.753-0.325-1.483-0.695-2.21-1.072c-5.823-3.022-10.81-7.309-14.877-12.14
				c-2.049-2.414-3.865-4.983-5.525-7.647c-0.828-1.335-1.605-2.701-2.334-4.108c-0.364-0.707-0.71-1.421-1.061-2.154l-0.516-1.124
				l-0.255-0.59c-0.092-0.226-0.158-0.373-0.286-0.724L195.973,160.956z"/>
			<path style="opacity:0.7;fill:#FFFFFF;" d="M195.973,160.956c-0.017-0.019,0.038,0.163,0.065,0.265l0.118,0.39l0.271,0.822
				c0.186,0.559,0.423,1.117,0.65,1.679c0.47,1.121,0.991,2.237,1.553,3.331c1.116,2.195,2.462,4.267,3.936,6.202
				c2.973,3.851,6.592,7.085,10.713,9.239c0.516,0.268,1.031,0.536,1.564,0.763l0.396,0.18c0.108,0.049,0.337,0.156,0.265,0.118
				c-0.02-0.004-0.045-0.012-0.045-0.012c-0.056,0.019,0.329,0.028,0.992-0.215c0.656-0.233,1.517-0.672,2.389-1.251
				c0.873-0.591,1.776-1.307,2.67-2.088c1.782-1.587,3.52-3.447,5.134-5.444c0.818-0.99,1.589-2.034,2.345-3.083
				c0.374-0.528,0.736-1.065,1.09-1.6c0.339-0.517,0.715-1.124,0.954-1.551l11.716,8.438c-0.586,0.703-1.061,1.207-1.584,1.792
				l-1.538,1.673c-1.022,1.111-2.079,2.188-3.142,3.269c-2.149,2.144-4.384,4.247-6.905,6.241c-1.263,1-2.6,1.971-4.092,2.877
				c-1.495,0.908-3.127,1.785-5.127,2.444c-1.977,0.633-4.454,1.113-7.27,0.574c-0.69-0.133-1.387-0.331-2.057-0.595
				c-0.404-0.152-0.487-0.204-0.7-0.295l-0.561-0.252c-0.753-0.325-1.483-0.695-2.21-1.072c-5.823-3.022-10.81-7.309-14.877-12.14
				c-2.049-2.414-3.865-4.983-5.525-7.647c-0.828-1.335-1.605-2.701-2.334-4.108c-0.364-0.707-0.71-1.421-1.061-2.154l-0.516-1.124
				l-0.255-0.59c-0.092-0.226-0.158-0.373-0.286-0.724L195.973,160.956z"/>
		</g>
		<path style="fill:#FFFFFF;" d="M197.577,167.207c0.125,3.801,0.29,8.612-0.27,17.684c-0.318,7.68-2.012,15.75-4.083,28.178
			c-4.202,2.463-25.464,1.441-39.071-0.317c0.826-10.89-0.523-23.335-7.902-47.838c-1.711-5.681,2.105-11.137,8.197-11.719
			c1.628-0.155,3.355-0.285,5.128-0.366c6.891-0.314,12.54-0.521,18.661,0.001c2.029,0.173,4.13,0.413,6.14,0.676
			C191.63,154.454,197.354,160.395,197.577,167.207z"/>
		<path style="fill:#263238;" d="M193.962,215.688c-13.558,1.541-27.704,1.457-41.263-0.084c-0.6-0.067-0.962-0.731-0.716-1.31
			c0.336-0.79,0.67-1.582,1-2.374c0.154-0.369,0.511-0.592,0.886-0.549c13.033,1.427,26.644,1.483,39.673,0.001
			c0.478-0.058,0.907,0.318,0.96,0.828c0.083,0.821,0.165,1.64,0.247,2.461C194.803,215.171,194.45,215.631,193.962,215.688z"/>
		<path style="opacity:0.2;fill:#407BFF;" d="M175.157,160.731c-2.496,0.859-4.475,5.414-3.969,8.142
			c-6.238-3.641-11.865-13.869-11.865-13.869l2.577-1.964L175.157,160.731z"/>
		<path style="opacity:0.2;fill:#407BFF;" d="M175.75,160.731c3.002,0.859,5.603,5.861,5.78,7.405
			c5.835-4.257,0.41-13.437,0.41-13.437l-3.038-1.128L175.75,160.731z"/>
		<path style="fill:#FFC3BD;" d="M160.885,131.839c1.624,6.004,3.619,17.006-0.283,21.012c0,0,5.145,5.794,15.496,8.74
			c7.281-4.173,3.165-8.739,3.165-8.739c-6.815-1.599-7.012-6.567-6.193-11.232L160.885,131.839z"/>
		<g>
			<path style="fill:#407BFF;" d="M160.172,151.913c0,0,7.066,6.276,9.168,21.402c4.017,28.895-3.774,140.389-3.774,140.389
				s-24.129-1.603-33.546-9.695c-0.442-8.092,15.196-82.654,13.821-104.056c-1.375-21.402-4.022-40.043-1.26-44.07
				C147.342,151.856,160.172,151.913,160.172,151.913z"/>
			<path style="opacity:0.8;fill:#FFFFFF;" d="M160.172,151.913c0,0,7.066,6.276,9.168,21.402
				c4.017,28.895-3.774,140.389-3.774,140.389s-24.129-1.603-33.546-9.695c-0.442-8.092,15.196-82.654,13.821-104.056
				c-1.375-21.402-4.022-40.043-1.26-44.07C147.342,151.856,160.172,151.913,160.172,151.913z"/>
		</g>
		<g>
			<path style="fill:#407BFF;" d="M178.752,152.513c10.761,13.812,10.676,95.364,7.569,159.8
				c9.55-1.151,19.761-12.311,19.761-12.311s-10.379-68.349-8.383-97.345c1.997-28.996,1.716-39.086-2.944-44.437
				C190.096,152.87,178.752,152.513,178.752,152.513z"/>
			<path style="opacity:0.8;fill:#FFFFFF;" d="M178.752,152.513c10.761,13.812,10.676,95.364,7.569,159.8
				c9.55-1.151,19.761-12.311,19.761-12.311s-10.379-68.349-8.383-97.345c1.997-28.996,1.716-39.086-2.944-44.437
				C190.096,152.87,178.752,152.513,178.752,152.513z"/>
		</g>
		<path style="fill:#407BFF;" d="M161.078,151.396c1.87,1.582,10.693,9.579,9.492,42.33c-0.888-3.713-4.928-21.294-9.276-29.665
			c0.932-0.913,2.992-1.014,2.992-1.014s-1.978-1.1-3.79-0.669c-1.213-2.445-3.704-7.587-6.12-10.349
			C156.993,150.418,161.078,151.396,161.078,151.396z"/>
		<path style="fill:#407BFF;" d="M186.626,193.725c0,0-1.917-30.507-8.245-41.38c1.553-0.346,4.718-0.529,7.192,1.122
			c1.323,1.593,3.049,7.709,3.049,9.033c-1.697-0.432-3.035,0.331-3.035,0.331s1.893,0.356,3.121,1.165
			C189.125,166.196,189.32,177.717,186.626,193.725z"/>
		<path style="opacity:0.2;" d="M165.852,135.829l7.211,5.785c-0.198,1.104-0.332,2.224-0.329,3.312
			c-2.585-0.37-6.308-3.178-6.779-5.856C165.721,137.735,165.681,136.452,165.852,135.829z"/>
		<path style="fill:#FFC3BD;" d="M155.758,119.787c1.822,9.695,2.387,13.826,7.919,18.476c8.322,6.995,19.755,3.294,20.848-6.59
			c0.984-8.897-2.161-23.257-12.151-26.458C162.531,102.062,153.936,110.092,155.758,119.787z"/>
		<path style="fill:#263238;" d="M159.324,126.487c2.946-6.055,6.055-11.701,4.582-13.747c-1.473-2.046-8.647-5.173-12.11-1.8
			c-5.21,5.073-0.486,15.465,2.58,16.365C157.441,128.206,159.324,126.487,159.324,126.487z"/>
		<path style="fill:#263238;" d="M161.721,111.759c7.619,4.478,14.376-5.794,16.735-2.497c3.533-3.804-3.299-6.586-10.541-6.586
			c-10.086,0-21.684,5.319-15.547,8.674C158.505,114.704,161.721,111.759,161.721,111.759z"/>
		<path style="fill:#FFFFFF;" d="M156.337,125.996c-0.111,0-0.21-0.075-0.238-0.186c-0.033-0.132,0.048-0.265,0.179-0.298
			l9.41-2.324l1.552-0.007c0.136,0,0.245,0.11,0.245,0.245s-0.11,0.245-0.245,0.245h-1.493l-9.351,2.317
			C156.376,125.994,156.357,125.996,156.337,125.996z"/>
		<path style="fill:#263238;" d="M171.115,121.403c0.118,0.82,0.639,1.454,1.164,1.415c0.525-0.039,0.856-0.735,0.738-1.556
			c-0.118-0.82-0.639-1.454-1.164-1.415C171.328,119.886,170.998,120.582,171.115,121.403z"/>
		<path style="fill:#263238;" d="M181.018,120.819c0.118,0.82,0.639,1.454,1.164,1.415c0.525-0.039,0.856-0.735,0.738-1.555
			c-0.118-0.82-0.639-1.454-1.164-1.415C181.231,119.302,180.9,119.999,181.018,120.819z"/>
		<path style="fill:#263238;" d="M181.531,119.326l1.848-0.71C183.379,118.616,182.61,120.228,181.531,119.326z"/>
		<path style="fill:#ED847E;" d="M179.106,123.427c0,0,1.288,3.689,2.752,5.545c-1.08,0.926-2.872,0.298-2.872,0.298
			L179.106,123.427z"/>
		<path style="fill:#FFFFFF;" d="M169.506,126.264c-0.716,0-1.365-0.27-1.837-0.769c-0.515-0.544-0.755-1.287-0.674-2.092
			c0.162-1.611,1.583-2.98,3.166-3.052l5.318-0.244c0.769-0.029,1.466,0.237,1.968,0.766c0.515,0.544,0.755,1.288,0.674,2.092
			c-0.162,1.611-1.583,2.98-3.166,3.053l-5.317,0.244C169.593,126.263,169.55,126.264,169.506,126.264z M175.611,120.595
			c-0.036,0-0.072,0.001-0.109,0.003l-5.318,0.244c-1.35,0.061-2.561,1.233-2.7,2.61c-0.067,0.661,0.125,1.266,0.541,1.706
			c0.4,0.424,0.955,0.641,1.59,0.613l5.317-0.244l0,0c1.35-0.061,2.561-1.233,2.7-2.611c0.067-0.661-0.125-1.267-0.542-1.706
			C176.713,120.811,176.191,120.595,175.611,120.595z"/>
		<path style="fill:#FFFFFF;" d="M182.608,125.664c-0.716,0-1.364-0.27-1.836-0.769c-0.515-0.545-0.754-1.288-0.673-2.092
			c0.162-1.61,1.583-2.98,3.166-3.052l2.3-0.105c0.757-0.026,1.467,0.237,1.969,0.766c0.515,0.544,0.755,1.287,0.673,2.092
			c-0.162,1.611-1.583,2.98-3.166,3.052l-2.301,0.105C182.696,125.663,182.652,125.664,182.608,125.664z M185.031,125.31h0.006
			H185.031z M185.697,120.133c-0.036,0-0.072,0.001-0.109,0.003l-2.3,0.105c-1.35,0.062-2.561,1.234-2.699,2.611
			c-0.067,0.661,0.125,1.266,0.541,1.706c0.4,0.423,0.949,0.643,1.59,0.613l2.301-0.105c1.35-0.061,2.561-1.233,2.7-2.61
			c0.067-0.661-0.125-1.266-0.542-1.706C186.8,120.349,186.277,120.133,185.697,120.133z"/>
		<path style="fill:#FFFFFF;" d="M177.891,122.952c-0.096,0-0.187-0.056-0.226-0.151c-0.053-0.125,0.006-0.269,0.131-0.321
			c0.372-0.156,2.253-0.892,2.79-0.016c0.071,0.116,0.034,0.267-0.081,0.338c-0.112,0.07-0.266,0.035-0.338-0.081
			c-0.234-0.382-1.439-0.099-2.181,0.212C177.955,122.946,177.923,122.952,177.891,122.952z"/>
		<path style="fill:#263238;" d="M175.101,131.524c0.427,0.045,0.882,0.055,1.365,0.019c0.13-0.009,0.22-0.125,0.201-0.259
			c-0.019-0.132-0.137-0.232-0.271-0.223c-3.523,0.262-5.534-2.133-5.554-2.157c-0.087-0.107-0.238-0.127-0.336-0.047
			c-0.099,0.08-0.109,0.232-0.022,0.338C170.561,129.289,172.178,131.219,175.101,131.524z"/>
		<path style="fill:#FFC3BD;" d="M154.788,129.599c1.227,1.853,2.994,2.87,4.531,3.083c2.312,0.32,2.969-2.367,1.91-4.839
			c-0.954-2.226-3.306-5.075-5.426-4.249C153.714,124.407,153.385,127.48,154.788,129.599z"/>
		<path style="fill:#263238;" d="M167.886,117.75c0.123-0.026,0.232-0.1,0.297-0.216c0.999-1.804,2.772-1.869,2.792-1.87
			c0.263-0.009,0.461-0.225,0.435-0.488c-0.026-0.262-0.263-0.469-0.53-0.463c-0.093,0.003-2.318,0.083-3.558,2.322
			c-0.124,0.223-0.031,0.516,0.206,0.654C167.643,117.756,167.771,117.774,167.886,117.75z"/>
		<path style="fill:#263238;" d="M184.046,116.235c0.119,0.009,0.239-0.026,0.331-0.107c0.191-0.169,0.199-0.471,0.016-0.676
			c-1.829-2.055-4.01-1.839-4.103-1.828c-0.26,0.029-0.432,0.266-0.384,0.53c0.048,0.263,0.298,0.453,0.558,0.426
			c0.085-0.01,1.78-0.153,3.234,1.482C183.794,116.167,183.92,116.226,184.046,116.235z"/>
		<g>
			<path style="fill:#FFFFFF;" d="M184.032,239.724l-23.397-7.435c-0.456-0.145-0.653-0.633-0.428-1.063l8.463-16.182
				c0.018-0.034,0.033-0.069,0.046-0.104l6.103-16.931c0.162-0.45,0.687-0.708,1.143-0.563l23.396,7.435
				c0.435,0.138,0.638,0.591,0.453,1.011l-14.658,33.322C184.969,239.634,184.467,239.862,184.032,239.724z"/>
			<g>
				<path style="fill:#407BFF;" d="M185.803,243.077l-24.639-7.83c-0.955-0.304-1.401-1.298-0.995-2.22l14.571-33.125
					c0.406-0.923,1.509-1.425,2.465-1.121l24.639,7.83c0.955,0.304,1.401,1.298,0.995,2.221l-14.571,33.125
					C187.862,242.879,186.758,243.381,185.803,243.077z"/>
				<path style="opacity:0.3;" d="M185.803,243.077l-24.639-7.83c-0.955-0.304-1.401-1.298-0.995-2.22l14.571-33.125
					c0.406-0.923,1.509-1.425,2.465-1.121l24.639,7.83c0.955,0.304,1.401,1.298,0.995,2.221l-14.571,33.125
					C187.862,242.879,186.758,243.381,185.803,243.077z"/>
			</g>
		</g>
		<path style="fill:#263238;" d="M171.628,119.91l1.849-0.71C173.476,119.2,172.707,120.812,171.628,119.91z"/>
		<path style="fill:#FFC3BD;" d="M173.199,216.032l-1.478-2.687c-0.556-1.01-1.566-1.69-2.711-1.824l-5.352-0.626
			c-2.14-0.25-4.268,0.551-5.712,2.15l-0.894,0.99c2.146,4.623,7.872,8.039,7.872,8.039l1.524,1.155
			c1.358,1.027,3.184,0.819,4.195-0.48l2.327-2.991C173.774,218.725,173.865,217.242,173.199,216.032z"/>
		<g>
			<path style="fill:#407BFF;" d="M154.716,165.555c-0.029,0.012-0.192,0.147-0.302,0.236l-0.382,0.321l-0.783,0.687
				c-0.524,0.471-1.034,0.976-1.544,1.484c-1.016,1.021-2.004,2.085-2.953,3.181c-1.886,2.203-3.613,4.541-5.082,6.99
				c-1.486,2.44-2.733,4.984-3.665,7.585c-0.48,1.298-0.857,2.61-1.177,3.928c-0.283,1.32-0.52,2.643-0.639,3.964l-0.028,0.248
				l-0.007,0.062l0.004-0.017l0.005-0.042c-0.005-0.063,0.003-0.1-0.005-0.139c-0.006-0.068-0.017-0.086-0.004-0.046
				c0.021,0.075,0.122,0.345,0.341,0.678c0.429,0.683,1.221,1.589,2.14,2.458c1.86,1.779,4.273,3.458,6.764,5.038
				c2.523,1.559,5.192,3.017,7.938,4.355c1.371,0.674,2.775,1.293,4.176,1.908l2.108,0.896c0.69,0.277,1.449,0.568,2.063,0.786
				l-5.904,13.176c-0.845-0.443-1.534-0.838-2.286-1.256l-2.202-1.228c-1.46-0.825-2.896-1.689-4.339-2.546
				c-2.88-1.727-5.742-3.512-8.565-5.482c-2.841-1.962-5.622-4.081-8.382-6.749c-1.369-1.364-2.74-2.857-3.999-4.902
				c-0.618-1.031-1.227-2.212-1.662-3.673c-0.217-0.727-0.381-1.535-0.453-2.401c-0.032-0.438-0.053-0.875-0.029-1.338l0.016-0.342
				l0.01-0.167l0.009-0.087l0.037-0.349c0.708-7.508,3.35-14.446,6.764-20.645c1.727-3.104,3.657-6.048,5.758-8.858
				c1.045-1.41,2.138-2.782,3.285-4.124c0.573-0.672,1.165-1.331,1.77-1.996l0.926-1.001l0.488-0.507
				c0.183-0.184,0.314-0.321,0.584-0.575L154.716,165.555z"/>
			<path style="opacity:0.8;fill:#FFFFFF;" d="M154.716,165.555c-0.029,0.012-0.192,0.147-0.302,0.236l-0.382,0.321l-0.783,0.687
				c-0.524,0.471-1.034,0.976-1.544,1.484c-1.016,1.021-2.004,2.085-2.953,3.181c-1.886,2.203-3.613,4.541-5.082,6.99
				c-1.486,2.44-2.733,4.984-3.665,7.585c-0.48,1.298-0.857,2.61-1.177,3.928c-0.283,1.32-0.52,2.643-0.639,3.964l-0.028,0.248
				l-0.007,0.062l0.004-0.017l0.005-0.042c-0.005-0.063,0.003-0.1-0.005-0.139c-0.006-0.068-0.017-0.086-0.004-0.046
				c0.021,0.075,0.122,0.345,0.341,0.678c0.429,0.683,1.221,1.589,2.14,2.458c1.86,1.779,4.273,3.458,6.764,5.038
				c2.523,1.559,5.192,3.017,7.938,4.355c1.371,0.674,2.775,1.293,4.176,1.908l2.108,0.896c0.69,0.277,1.449,0.568,2.063,0.786
				l-5.904,13.176c-0.845-0.443-1.534-0.838-2.286-1.256l-2.202-1.228c-1.46-0.825-2.896-1.689-4.339-2.546
				c-2.88-1.727-5.742-3.512-8.565-5.482c-2.841-1.962-5.622-4.081-8.382-6.749c-1.369-1.364-2.74-2.857-3.999-4.902
				c-0.618-1.031-1.227-2.212-1.662-3.673c-0.217-0.727-0.381-1.535-0.453-2.401c-0.032-0.438-0.053-0.875-0.029-1.338l0.016-0.342
				l0.01-0.167l0.009-0.087l0.037-0.349c0.708-7.508,3.35-14.446,6.764-20.645c1.727-3.104,3.657-6.048,5.758-8.858
				c1.045-1.41,2.138-2.782,3.285-4.124c0.573-0.672,1.165-1.331,1.77-1.996l0.926-1.001l0.488-0.507
				c0.183-0.184,0.314-0.321,0.584-0.575L154.716,165.555z"/>
		</g>
	</g>
</g>
<g id="Character_2">
	<g>
		<g>
			<g>
				<path style="fill:#FF8B7B;" d="M300.528,144.992l-2.878,3.098l-2.895,3.212c-1.905,2.161-3.78,4.335-5.551,6.545
					c-1.786,2.195-3.456,4.446-4.969,6.669c-1.493,2.213-2.81,4.512-3.602,6.473c-0.111,0.251-0.195,0.485-0.264,0.705
					c-0.083,0.23-0.162,0.454-0.202,0.642c-0.123,0.442-0.191,0.671-0.243,1.173c-0.1,0.921-0.11,2.14-0.024,3.404
					c0.188,2.551,0.623,5.346,1.173,8.146c1.079,5.617,2.591,11.42,3.997,17.135l0.023,0.095c0.486,1.976-0.722,3.971-2.697,4.457
					c-1.595,0.392-3.205-0.324-4.021-1.653c-1.667-2.721-3.098-5.428-4.465-8.248c-1.362-2.809-2.608-5.686-3.726-8.676
					c-1.103-2.998-2.104-6.078-2.773-9.5c-0.332-1.721-0.616-3.517-0.618-5.612c-0.014-1.004,0.081-2.282,0.274-3.314
					c0.082-0.557,0.196-1.062,0.318-1.558c0.115-0.511,0.244-1.001,0.39-1.459c1.123-3.768,2.738-6.796,4.407-9.708
					c1.673-2.9,3.531-5.552,5.429-8.132c1.919-2.562,3.907-5.025,5.985-7.395c1.037-1.187,2.085-2.36,3.169-3.504
					c1.092-1.167,2.148-2.24,3.378-3.438c2.914-2.837,7.575-2.775,10.412,0.138c2.747,2.82,2.776,7.279,0.133,10.135
					L300.528,144.992z"/>
			</g>
			<polygon style="fill:#FF8B7B;" points="306.836,378.907 311.523,402.321 300.356,404.665 295.669,381.251 			"/>
			<path style="fill:#263238;" d="M299.583,402.006l12.519-2.685c0.411-0.087,0.799,0.129,0.934,0.521l3.001,8.729
				c0.311,0.905-0.292,1.953-1.243,2.138c-3.967,0.772-5.279,0.735-10.256,1.792c-5.819,1.236-7.769,3.979-14.741,4.227
				c-4.216,0.15-5.109-4.079-3.325-4.55c5.647-1.489,8.808-5.914,10.778-8.856C297.767,402.552,298.716,402.19,299.583,402.006z"/>
			<polygon style="opacity:0.2;" points="306.844,378.911 309.258,390.981 298.086,393.326 295.672,381.257 			"/>
			<path style="fill:#263238;" d="M298.72,297.711c13.202-38.833,23.657-90.445,23.657-90.445l-37.659-2.376
				c0,0-7.653,65.46-9.447,92.967c-0.852,13.066,18.717,91.087,18.717,91.087l17.01-3.334
				C310.998,385.61,304.678,324.696,298.72,297.711z"/>
			<path style="opacity:0.2;" d="M305.213,235.234c0,0-1.689,17.91,0.933,38.52c2.759-9.642,5.283-19.295,7.472-28.132
				L305.213,235.234z"/>
			<g>
				<path style="fill:#407BFF;" d="M295.137,391.051l15.694-2.821c0.645-0.116,1.101-0.697,1.059-1.352l-0.336-5.301
					c-0.048-0.762-0.743-1.315-1.497-1.192l-17.138,2.81c-0.785,0.129-1.267,0.93-1.015,1.683l1.781,5.311
					C293.888,390.798,294.506,391.164,295.137,391.051z"/>
				<path style="opacity:0.2;fill:#FFFFFF;" d="M295.137,391.051l15.694-2.821c0.645-0.116,1.101-0.697,1.059-1.352l-0.336-5.301
					c-0.048-0.762-0.743-1.315-1.497-1.192l-17.138,2.81c-0.785,0.129-1.267,0.93-1.015,1.683l1.781,5.311
					C293.888,390.798,294.506,391.164,295.137,391.051z"/>
			</g>
			<polygon style="fill:#FF8B7B;" points="341.079,386.026 341.779,409.898 330.361,409.737 329.661,385.865 			"/>
			<path style="fill:#263238;" d="M330.089,404.842l12.139,0.176c0.42,0.007,0.75,0.305,0.794,0.716l0.977,9.178
				c0.101,0.951-0.721,1.839-1.688,1.807c-4.039-0.132-5.31-0.462-10.397-0.542c-5.948-0.093-7.236,0.652-14.211,0.543
				c-4.218-0.066-4.893-4.336-3.087-4.714c5.716-1.197,10.329-3.974,12.906-6.402C328.196,404.969,329.202,404.828,330.089,404.842z
				"/>
			<polygon style="opacity:0.2;" points="341.087,386.032 341.445,398.337 330.022,398.176 329.664,385.871 			"/>
			<path style="fill:#263238;" d="M338.236,296.926c-0.781-39.213-0.496-68.702-5.244-88.99l-34.272-2.125
				c0,0,10.639,65.85,16.516,93.019c5.899,27.274,12.185,93.132,12.185,93.132l16.847,0.207
				C344.268,392.17,346.329,328.799,338.236,296.926z"/>
			<g>
				<path style="fill:#407BFF;" d="M327.471,394.986l15.933,0.251c0.687,0.011,1.262-0.519,1.308-1.205l0.35-5.262
					c0.049-0.729-0.517-1.353-1.247-1.375l-17.351-0.539c-0.827-0.026-1.464,0.722-1.307,1.534l1.068,5.551
					C326.34,394.539,326.86,394.976,327.471,394.986z"/>
				<path style="opacity:0.2;fill:#FFFFFF;" d="M327.471,394.986l15.933,0.251c0.687,0.011,1.262-0.519,1.308-1.205l0.35-5.262
					c0.049-0.729-0.517-1.353-1.247-1.375l-17.351-0.539c-0.827-0.026-1.464,0.722-1.307,1.534l1.068,5.551
					C326.34,394.539,326.86,394.976,327.471,394.986z"/>
			</g>
			<path style="fill:#FF8B7B;" d="M327.113,130.997c-7.629-1.311-15.787-2.082-23.046-2.062
				c-10.313,0.028-18.97,7.869-20.156,18.113c-1.784,15.407-1.573,32.614,0.72,58.764c8.97,6.658,30.746,4.494,48.361,2.125
				c1.789-12.375,1.328-29.917,7.181-57.795C342.049,141.211,336.107,132.542,327.113,130.997z"/>
			<path style="fill:#FF8B7B;" d="M288.47,199.583l-3.859-0.455c-1.316-0.155-2.631,0.291-3.581,1.213l-1.155,1.121
				c-1.407,1.366-1.785,3.523-0.819,5.23c0.974,1.722,2.612,3.481,4.159,4.924c1.828,1.706,4.794,1.065,5.735-1.252l2.4-5.911
				C292.232,202.277,290.802,199.858,288.47,199.583z"/>
			<path style="opacity:0.2;" d="M300.463,198.813c-0.112,0.642-0.506,1.11-0.878,1.044c-0.373-0.065-0.584-0.639-0.472-1.281
				c0.112-0.642,0.506-1.11,0.879-1.045C300.364,197.597,300.576,198.171,300.463,198.813z"/>
			<path style="opacity:0.2;" d="M321.594,159.866c-0.06,0.459-0.414,0.79-0.789,0.741c-0.375-0.049-0.63-0.461-0.57-0.92
				c0.06-0.459,0.414-0.79,0.789-0.741C321.399,158.996,321.655,159.408,321.594,159.866z"/>
			<path style="opacity:0.2;" d="M291.95,158.461c-0.06,0.459-0.414,0.79-0.789,0.741c-0.375-0.049-0.63-0.461-0.57-0.92
				c0.06-0.459,0.414-0.79,0.789-0.741C291.755,157.591,292.01,158.003,291.95,158.461z"/>
			<path style="fill:#FF8B7B;" d="M324.395,110.371l-15.402,8.118c1.083,5.205,0.979,10.502-6.667,11.106
				c-0.793,0.063-1.474,0.433-1.908,0.986c-2.054,2.617-2.667,6.775,5.416,8.014c7.712,1.183,13.007-0.871,17.13-3.235
				c1.17-0.67,1.457-2.03,0.802-3.248C320.568,126.163,322.634,116.059,324.395,110.371z"/>
			<path style="opacity:0.2;" d="M318.115,113.685l-9.115,4.8c0.273,1.287,0.464,2.576,0.48,3.798
				c3.299,0.193,8.008-2.084,8.562-4.981C318.318,115.856,318.346,114.424,318.115,113.685z"/>
			<path style="fill:#263238;" d="M299.277,108.801c0.606-2.781,0.711-8.74,3.102-9.071
				C304.771,99.399,300.359,112.08,299.277,108.801z"/>
			<path style="fill:#FF8B7B;" d="M327.738,99.103c-2.731,8.543-2.779,13.376-7.689,17.519c-7.387,6.231-18.046,1.078-19.393-8.035
				c-1.213-8.202,1.169-21.328,10.219-24.032C319.789,81.891,330.469,90.56,327.738,99.103z"/>
			<path style="fill:#263238;" d="M300.475,107.041c-2.767,1.644-2.358,10.513,0.861,12.316c3.094,1.733,8.406,2.56,16.186,0.57
				c6.453-1.65,4.816-9.113,5.921-11.757c1.105-2.645,1.882-7.18-0.777-6.485c-2.659,0.696-3.328,8.068-5.619,6.718
				c-2.291-1.35-5.638-2.308-8.747-2.535C305.19,105.643,301.639,106.349,300.475,107.041z"/>
			<path style="fill:#FF8B7B;" d="M328.712,107.565c-1.312,2.002-3.28,3.224-5.025,3.611c-2.625,0.581-3.507-2.048-2.417-4.656
				c0.981-2.347,3.53-5.477,5.991-4.884C329.686,102.22,330.212,105.276,328.712,107.565z"/>
			<path style="fill:#263238;" d="M313.522,98.57c0.03,0.759-0.349,1.386-0.846,1.401c-0.497,0.015-0.924-0.588-0.954-1.347
				c-0.03-0.759,0.349-1.386,0.846-1.401C313.065,97.208,313.492,97.811,313.522,98.57z"/>
			<path style="fill:#263238;" d="M304.889,98.198c0.03,0.759-0.349,1.386-0.846,1.401c-0.497,0.015-0.924-0.588-0.953-1.347
				c-0.03-0.759,0.349-1.386,0.846-1.401C304.432,96.836,304.859,97.439,304.889,98.198z"/>
			<path style="fill:#FF5652;" d="M308.018,98.699c0,0-1.556,4.43-3.376,6.6c1.394,1.212,3.657,0.57,3.657,0.57L308.018,98.699z"/>
			<path style="fill:#FF8B7B;" d="M308.654,110.216c2.866,0.535,4.751-0.955,4.838-1.026c0.095-0.077,0.11-0.218,0.032-0.314
				c-0.078-0.096-0.218-0.112-0.313-0.035c-0.022,0.018-2.22,1.744-5.381,0.702c-0.117-0.038-0.242,0.025-0.28,0.142
				c-0.038,0.117,0.027,0.244,0.144,0.282C308.025,110.077,308.345,110.159,308.654,110.216z"/>
			<path style="fill:#263238;" d="M317.089,96.352c0.074-0.002,0.149-0.022,0.217-0.062c0.211-0.126,0.278-0.399,0.151-0.612
				c-1.277-2.125-3.335-2.236-3.422-2.24c-0.247-0.011-0.453,0.181-0.461,0.427c-0.008,0.245,0.184,0.453,0.429,0.465l0,0
				c0.068,0.004,1.671,0.107,2.69,1.803C316.78,96.276,316.933,96.355,317.089,96.352z"/>
			<path style="fill:#263238;" d="M301.158,94.575c0.143,0.022,0.293-0.026,0.396-0.142c1.309-1.461,2.901-1.241,2.969-1.231
				c0.243,0.036,0.469-0.13,0.505-0.373c0.035-0.243-0.131-0.47-0.373-0.509c-0.088-0.012-2.125-0.317-3.766,1.513
				c-0.164,0.183-0.147,0.465,0.036,0.631C300.993,94.526,301.074,94.563,301.158,94.575z"/>
			<g>
				<path style="fill:#FF8B7B;" d="M335.202,134.449c0.705,0.665,1.254,1.204,1.858,1.803c0.593,0.583,1.162,1.179,1.73,1.775
					c1.138,1.19,2.244,2.404,3.323,3.645c2.174,2.466,4.227,5.051,6.208,7.727c3.897,5.408,7.525,11.164,9.969,18.146
					c0.599,1.746,1.096,3.591,1.43,5.554c0.185,0.966,0.284,1.997,0.374,3.021c0.032,0.558,0.041,1.284,0.015,1.88
					c-0.047,0.589-0.076,1.221-0.173,1.758c-0.334,2.244-0.981,4.127-1.68,5.873c-0.702,1.744-1.517,3.332-2.393,4.838
					c-1.732,3.016-3.686,5.723-5.765,8.282c-1.037,1.28-2.114,2.515-3.229,3.711c-1.12,1.211-2.244,2.332-3.508,3.505
					c-1.492,1.384-3.823,1.296-5.207-0.196c-1.095-1.18-1.268-2.885-0.555-4.231l0.082-0.153c2.803-5.267,5.689-10.748,7.625-15.973
					c0.47-1.307,0.881-2.591,1.189-3.799c0.305-1.203,0.456-2.355,0.458-3.214c0.021-0.235-0.025-0.386-0.024-0.574
					c-0.025-0.182-0.05-0.237-0.081-0.455c-0.101-0.524-0.18-1.043-0.34-1.6c-0.274-1.095-0.677-2.248-1.181-3.418
					c-0.957-2.349-2.294-4.753-3.801-7.108c-1.48-2.374-3.186-4.705-4.962-7c-1.777-2.302-3.675-4.55-5.62-6.768
					c-0.979-1.102-1.969-2.199-2.968-3.281l-1.505-1.604l-1.451-1.504l-0.169-0.175c-2.823-2.927-2.739-7.588,0.188-10.411
					C327.876,131.767,332.36,131.777,335.202,134.449z"/>
				<path style="fill:#FF8B7B;" d="M338.307,199.847l-7.086,1.552l5.26,9.638c0,0,5.441-1.902,6.83-5.084
					c0.428-0.98,0.244-2.123-0.41-2.97l-1.575-2.038C340.616,200.026,339.441,199.599,338.307,199.847z"/>
				<path style="fill:#FF8B7B;" d="M326.029,209.365l2.413,3.067c0.961,1.221,2.664,1.567,4.024,0.817l4.015-2.212l-5.26-9.638
					l-4.608,3.471C325.193,205.939,324.929,207.968,326.029,209.365z"/>
			</g>
		</g>
		<g>
			<path style="fill:#407BFF;" d="M417.852,201.399h-0.945v-14.214c0-3.14-1.227-6.096-3.453-8.323l0.668-0.668
				c2.405,2.405,3.73,5.598,3.73,8.991V201.399z"/>
			<rect x="416.907" y="208.194" style="fill:#407BFF;" width="0.945" height="5.449"/>
			<path style="fill:#407BFF;" d="M405.131,177.772L405.131,177.772c-5.199,0-9.414,4.215-9.414,9.414v229.547h18.828V187.185
				C414.545,181.986,410.331,177.772,405.131,177.772z"/>
			<path style="fill:#FFFFFF;" d="M412.165,187.185c0,3.884-3.149,7.033-7.033,7.033c-3.884,0-7.033-3.149-7.033-7.033
				c0-3.884,3.149-7.033,7.033-7.033C409.016,180.152,412.165,183.301,412.165,187.185z"/>
			<path style="fill:#407BFF;" d="M408.588,190.086L408.588,190.086c1.804-2.141,1.531-5.339-0.61-7.143l-32.507-27.389v13.258
				l25.974,21.885C403.586,192.5,406.784,192.227,408.588,190.086z"/>
			<polygon style="fill:#263238;" points="380.484,159.777 375.471,155.553 375.471,168.811 381.904,174.232 			"/>
		</g>
		<g>
			<g>
				<polygon style="opacity:0.7;fill:#263238;" points="371.777,220.828 239.111,220.828 244.939,138.941 377.605,138.941 				"/>
				<path style="fill:#FFFFFF;" d="M371.905,142.868c0.535,0,0.857,0.225,1.033,0.414c0.178,0.191,0.383,0.535,0.344,1.08
					l-5.017,70.486c-0.078,1.093-1.1,2.052-2.188,2.052H244.811c-0.535,0-0.857-0.225-1.033-0.414
					c-0.178-0.191-0.383-0.535-0.344-1.08l5.017-70.486c0.078-1.093,1.1-2.052,2.188-2.052H371.905 M371.905,138.941H250.639
					c-3.148,0-5.882,2.552-6.106,5.701l-5.017,70.487c-0.224,3.148,2.146,5.701,5.295,5.701h121.266
					c3.148,0,5.882-2.552,6.106-5.701l5.017-70.487C377.424,141.493,375.053,138.941,371.905,138.941L371.905,138.941z"/>
				<path style="fill:#407BFF;" d="M371.637,222.792H238.971c-1.085,0-1.901-0.879-1.824-1.964l5.828-81.887
					c0.077-1.085,1.019-1.964,2.104-1.964h132.666c1.085,0,1.901,0.879,1.824,1.964l-5.828,81.887
					C373.663,221.913,372.722,222.792,371.637,222.792z M241.214,218.864h128.738l5.549-77.96H246.763L241.214,218.864z"/>
			</g>
			<g>
				<path style="fill:#FFFFFF;" d="M306.153,144.838c-0.874,0.269-1.531,1.054-1.765,2.014c-2.996,12.277-7.554,57.846-0.979,61.76
					c2.575,1.533,1.536-26.292,4.671-42.016c2.08-10.435,3.251-15.629,3.905-18.389c0.401-1.693-0.65-3.398-2.236-3.612
					C308.446,144.42,307.162,144.527,306.153,144.838z"/>
				<path style="fill:#FFFFFF;" d="M330.52,144.995c-3.518-1.166-9.492,5.376-19.963,2.327c0,0-0.084,2.468-0.821,5.082
					C327.001,154.146,334.039,146.16,330.52,144.995z"/>
				<path style="fill:#FFFFFF;" d="M332.734,153.971c-4.227-1.054-11.402,4.862-23.98,2.104c0,0-0.101,2.232-0.986,4.596
					C328.508,162.247,336.961,155.025,332.734,153.971z"/>
				<path style="fill:#FFFFFF;" d="M330.053,165.298c-3.79-1.599-11.256,4.206-22.585-0.132c0,0-0.393,2.458-1.532,4.98
					C325.013,174.014,333.843,166.896,330.053,165.298z"/>
				<path style="fill:#FFFFFF;" d="M326.708,175.193c-3.463-1.417-10.323,3.807-20.677-0.035c0,0-0.371,2.202-1.424,4.464
					C322.056,183.015,330.171,176.61,326.708,175.193z"/>
				<path style="fill:#FFFFFF;" d="M291.041,145.147c2.93-1.153,6.053,5.328,14.681,2.311c0,0-0.472,2.445-0.479,5.034
					C291.731,154.213,288.111,146.3,291.041,145.147z"/>
				<path style="fill:#FFFFFF;" d="M287.696,154.043c3.468-1.043,7.507,4.819,17.738,2.091c0,0-0.459,2.211-0.354,4.553
					C288.924,162.243,284.227,155.086,287.696,154.043z"/>
				<path style="fill:#FFFFFF;" d="M287.728,165.276c3.206-1.582,7.713,4.171,17.208-0.123c0,0-0.197,2.435,0.16,4.934
					C289.801,173.912,284.522,166.858,287.728,165.276z"/>
				<path style="fill:#FFFFFF;" d="M288.572,175.099c2.938-1.403,7.037,3.775,15.738-0.028c0,0-0.19,2.181,0.126,4.423
					C290.433,182.849,285.634,176.502,288.572,175.099z"/>
				<path style="fill:#FFFFFF;" d="M291.008,214.119c-2.347-0.171-4.135-2.145-4.104-4.498c0.078-6.078-0.818-12.105,4.366-10.147
					c6.355,2.4,8.347,6.437,20.28,2.946c11.933-3.491,20.224-2.618,20.443,4.473c0.047,1.512-0.012,2.717-0.134,3.676
					c-0.272,2.152-2.115,3.757-4.283,3.809C320.742,214.542,301.733,214.9,291.008,214.119z"/>
				<path style="fill:#FFFFFF;" d="M341.28,147.605c5.275,5.131,17.225,24.12,13.85,27.166
					c-1.932,1.744-11.892-16.327-15.601-21.528C335.819,148.041,337.508,143.936,341.28,147.605z"/>
				<path style="fill:#FFFFFF;" d="M283.536,147.255c-4.597,4.984-14.694,23.105-11.478,25.786
					c1.841,1.535,10.159-15.65,13.323-20.632C288.545,147.426,286.823,143.691,283.536,147.255z"/>
				<path style="fill:#FFFFFF;" d="M355.582,181.707c-1.718,5.751-11.125,22.449-14.766,21.924
					c-2.084-0.301,7.437-15.337,9.838-20.175C353.055,178.618,356.811,177.595,355.582,181.707z"/>
				<path style="fill:#FFFFFF;" d="M274.714,178.236c2.829,4.871,8.786,22.405,6.586,24.874c-1.259,1.413-6.086-15.181-7.978-20.013
					C271.43,178.266,272.69,174.753,274.714,178.236z"/>
			</g>
		</g>
	</g>
</g>
</svg>
